<svg width="126" height="52" viewBox="0 0 126 52" fill="none" xmlns="http://www.w3.org/2000/svg">
<path d="M54.4086 27.6925L50.3933 31.4195C48.0959 33.5519 44.4577 33.2258 42.5763 30.7188V30.7188C41.054 28.6904 41.1884 25.8664 42.8964 23.9918L45.5188 21.1135C46.5642 19.9661 46.7098 18.26 45.8738 16.9522L43.3071 12.9364C41.9279 10.7787 42.3113 7.94 44.2134 6.22536V6.22536C46.3893 4.26398 49.7508 4.46846 51.6728 6.67913L51.8481 6.88074L55.5307 10.9457L60.8666 16.4768C62.2772 17.9391 62.1706 20.2859 60.6332 21.6142L57.243 24.5431" stroke="#014467" stroke-width="2.36061"/>
<path d="M57.5588 9.89794L61.5774 6.37001C63.8489 4.37583 67.319 4.65247 69.2459 6.98136V6.98136C70.9485 9.03916 70.877 12.0363 69.0783 14.0106L66.6478 16.6781C65.6024 17.8255 65.4569 19.5315 66.2929 20.8394L68.9399 24.9808C70.2776 27.0737 69.9278 29.8237 68.1086 31.515V31.515C66.2492 33.2437 63.4063 33.3562 61.416 31.78L60.3186 30.9108L56.636 26.8458L50.8536 20.8988C49.4974 19.504 49.57 17.2621 51.0135 15.9579L54.4094 12.8898" stroke="white" stroke-width="2.36061"/>
<path d="M52.76 14.7495V15.7741H55.8338L56.6023 15.2618L55.8338 14.7495H52.76Z" fill="white" stroke="white" stroke-width="0.0512305"/>
<path d="M55.8343 14.7495H59.6766V15.7741H55.8343L56.6027 15.2618L55.8343 14.7495Z" fill="#014467"/>
<path d="M50.2008 19.2456V20.2702H55.8361L56.6046 19.7579L55.8361 19.2456H50.2008Z" fill="white" stroke="white" stroke-width="0.0512305"/>
<path d="M55.8382 19.2456H61.7297V20.2702H55.8382L56.6067 19.7579L55.8382 19.2456Z" fill="#014467"/>
<path d="M52.76 21.8073V22.8319H56.3461V21.8073H55.6289H52.76Z" fill="white" stroke="white" stroke-width="0.0512305"/>
<path d="M56.3486 21.8061C56.0656 21.8061 55.8363 22.0354 55.8363 22.3184C55.8363 22.6013 56.0656 22.8307 56.3486 22.8307V21.8061ZM56.3486 22.3184V22.8307H59.9347V22.3184V21.8061H56.3486V22.3184Z" fill="#014467"/>
<path d="M50.2008 16.9955V18.0201H56.3484V16.9955H55.1189H50.2008Z" fill="white" stroke="white" stroke-width="0.0512305"/>
<path d="M56.3493 16.9964C56.0664 16.9964 55.837 17.2257 55.837 17.5087C55.837 17.7916 56.0664 18.021 56.3493 18.021V16.9964ZM56.3493 17.5087V18.021H61.4723V17.5087V16.9964H56.3493V17.5087Z" fill="#014467"/>
<path d="M7.76459 31.3018C5.93548 31.3018 4.62766 31.0274 3.84114 30.4787C3.07291 29.93 2.6888 29.0428 2.6888 27.8173C2.6888 27.0491 2.75282 26.1163 2.88085 25.0188C3.02718 23.903 3.20095 22.705 3.40215 21.4246C3.62165 20.1442 3.83199 18.8455 4.0332 17.5286C4.25269 16.1933 4.42646 14.9129 4.55449 13.6874C4.70082 12.4619 4.77399 11.3736 4.77399 10.4225C4.77399 10.0384 4.72826 9.55364 4.6368 8.96832C4.56364 8.36471 4.47218 7.89829 4.36244 7.56905C6.53908 7.09348 8.49623 6.8557 10.2339 6.8557C12.0264 6.8557 13.572 7.13006 14.8707 7.6788C16.1694 8.20924 17.1754 9.11465 17.8887 10.395C18.6021 11.6754 18.9588 13.4314 18.9588 15.6629C18.9588 17.7664 18.6935 19.7601 18.1631 21.6441C17.6509 23.5098 16.901 25.1743 15.9133 26.6376C14.9439 28.0826 13.7732 29.2258 12.4014 30.0672C11.0296 30.8903 9.48396 31.3018 7.76459 31.3018ZM8.56025 29.3812C9.67601 29.3812 10.6546 29.116 11.496 28.5856C12.3374 28.0551 13.0507 27.3509 13.636 26.4729C14.2214 25.5767 14.6878 24.589 15.0353 23.5098C15.4011 22.4306 15.6664 21.3423 15.831 20.2448C15.9956 19.1291 16.0779 18.0956 16.0779 17.1445C16.0779 14.9312 15.8767 13.2027 15.4743 11.9589C15.0902 10.7151 14.45 9.83715 13.5537 9.325C12.6758 8.79456 11.4868 8.52933 9.98696 8.52933C9.65772 8.52933 9.31934 8.54763 8.9718 8.58421C8.62427 8.6025 8.2676 8.64823 7.90177 8.72139C7.90177 9.37987 7.82861 10.2487 7.68228 11.3279C7.53595 12.4071 7.35304 13.6143 7.13354 14.9495C6.91405 16.2665 6.68541 17.6292 6.44763 19.0376C6.22813 20.4277 6.04522 21.7813 5.89889 23.0982C5.75256 24.3969 5.6794 25.5675 5.6794 26.6101C5.6794 27.0674 5.69769 27.4607 5.73427 27.7899C5.77085 28.1191 5.82573 28.4118 5.89889 28.6679C6.22813 28.8691 6.6031 29.0428 7.0238 29.1892C7.46278 29.3172 7.97494 29.3812 8.56025 29.3812Z" fill="white"/>
<path d="M28.2992 31.439C26.7993 31.439 25.5372 30.9909 24.5129 30.0946C23.4886 29.1983 22.7112 27.9911 22.1808 26.4729C21.6503 24.9548 21.3851 23.2628 21.3851 21.3972C21.3851 20.0436 21.5131 18.6718 21.7692 17.2816C22.0253 15.8915 22.4094 14.5654 22.9216 13.3033C23.4337 12.0229 24.0739 10.8889 24.8421 9.90117C25.6287 8.89516 26.5432 8.10864 27.5858 7.54161C28.6284 6.9563 29.8082 6.66364 31.1251 6.66364C32.625 6.66364 33.8871 7.12092 34.9114 8.03547C35.9357 8.95003 36.7131 10.1755 37.2435 11.712C37.774 13.2302 38.0392 14.9312 38.0392 16.8152C38.0392 18.1688 37.9112 19.5406 37.6551 20.9307C37.399 22.3026 37.0149 23.6195 36.5027 24.8816C35.9906 26.1254 35.3412 27.2412 34.5547 28.2289C33.7865 29.2166 32.8811 30.0031 31.8385 30.5884C30.7959 31.1555 29.6161 31.439 28.2992 31.439ZM29.4515 29.3264C30.3478 29.3264 31.116 29.0337 31.7562 28.4484C32.4147 27.8631 32.9543 27.1131 33.3749 26.1986C33.8139 25.2657 34.1615 24.2689 34.4175 23.208C34.6736 22.1471 34.8565 21.1228 34.9663 20.1351C35.076 19.1473 35.1309 18.3151 35.1309 17.6383C35.1309 14.7117 34.6736 12.5077 33.7591 11.0261C32.8628 9.5262 31.5916 8.77626 29.9454 8.77626C29.0674 8.77626 28.3083 9.05978 27.6681 9.6268C27.0462 10.1938 26.5158 10.9346 26.0768 11.8492C25.6378 12.7454 25.2903 13.724 25.0342 14.7849C24.7781 15.8275 24.5861 16.8427 24.458 17.8304C24.3483 18.8181 24.2934 19.6595 24.2934 20.3546C24.2934 23.3543 24.7415 25.6041 25.6378 27.104C26.5524 28.5856 27.8236 29.3264 29.4515 29.3264Z" fill="white"/>
<path d="M87.2491 31.215C86.763 31.0206 86.2526 30.8423 85.7179 30.6803C85.1993 30.5345 84.5836 30.4211 83.8707 30.34C83.1577 30.2428 82.2584 30.1942 81.1728 30.1942C80.2005 30.1942 79.358 30.2347 78.645 30.3157C77.932 30.3967 77.2191 30.5183 76.5061 30.6803C76.1821 31.0044 75.8337 31.1664 75.461 31.1664C75.1531 31.1664 74.8858 31.0773 74.6589 30.8991C74.4483 30.737 74.2781 30.5183 74.1485 30.2428C74.424 29.6433 74.7967 28.8736 75.2666 27.9338C75.7365 26.994 76.2712 25.957 76.8707 24.8227C77.4702 23.6885 78.086 22.5218 78.7179 21.3227C79.3661 20.1075 79.998 18.9408 80.6137 17.8228C81.2295 16.6885 81.7885 15.6596 82.2908 14.736C82.8093 13.7962 83.2306 13.0346 83.5547 12.4513C82.6797 12.6133 81.8695 12.7268 81.1241 12.7916C80.395 12.8402 79.917 12.8645 79.6901 12.8645C78.4263 12.8645 77.5026 12.7024 76.9193 12.3784C76.3522 12.0381 76.0686 11.5763 76.0686 10.993C76.0686 10.6689 76.1091 10.361 76.1902 10.0694C76.2874 9.7615 76.4413 9.46173 76.652 9.17007C77.2515 9.52655 78.005 9.85872 78.9124 10.1666C79.836 10.4583 80.9621 10.6041 82.2908 10.6041C82.8093 10.6041 83.2792 10.596 83.7005 10.5798C84.138 10.5474 84.535 10.515 84.8915 10.4826C85.4586 9.89923 86.05 9.60757 86.6658 9.60757C86.844 9.60757 87.079 9.63997 87.3706 9.70479C87.6623 9.7696 87.9215 9.93164 88.1484 10.1909C88.3914 10.4502 88.513 10.8795 88.513 11.4791C88.0593 11.5439 87.5489 11.8518 86.9817 12.4027C86.4308 12.9536 85.8394 13.6828 85.2074 14.5902C84.5917 15.4814 83.9517 16.5022 83.2873 17.6526C82.623 18.7869 81.9586 19.986 81.2943 21.2498C80.6299 22.5137 79.9818 23.7857 79.3499 25.0658C78.7179 26.3459 78.1184 27.5773 77.5513 28.7602C78.8962 28.3875 80.1033 28.1445 81.1728 28.031C82.2422 27.9014 83.0524 27.8366 83.6033 27.8366C84.3649 27.8366 85.0211 27.8852 85.572 27.9824C86.1229 28.0796 86.5442 28.3065 86.8359 28.663C87.1438 29.0194 87.2977 29.5866 87.2977 30.3643C87.2977 30.494 87.2896 30.6317 87.2734 30.7775C87.2734 30.9234 87.2653 31.0692 87.2491 31.215Z" fill="white"/>
<path d="M97.0834 31.5978C95.6303 31.5978 94.3969 31.1923 93.3832 30.3813C92.3863 29.5703 91.626 28.4805 91.1022 27.1119C90.5953 25.7433 90.3419 24.2227 90.3419 22.55C90.3419 21.2827 90.4686 19.9902 90.722 18.6723C90.9924 17.3544 91.3894 16.0957 91.9132 14.896C92.4539 13.6795 93.1213 12.5982 93.9154 11.652C94.7264 10.6889 95.6641 9.92862 96.7286 9.37105C97.793 8.81348 98.9927 8.53469 100.327 8.53469C101.797 8.53469 103.031 8.9402 104.028 9.75121C105.025 10.5622 105.776 11.6605 106.283 13.0459C106.807 14.4145 107.069 15.9352 107.069 17.6079C107.069 18.8751 106.934 20.1676 106.663 21.4855C106.393 22.8034 105.988 24.0621 105.447 25.2618C104.923 26.4614 104.264 27.5427 103.47 28.5058C102.676 29.452 101.747 30.2039 100.682 30.7614C99.6178 31.319 98.4182 31.5978 97.0834 31.5978ZM98.6294 29.6209C99.5587 29.6209 100.344 29.3506 100.986 28.8099C101.645 28.2693 102.186 27.5681 102.608 26.7064C103.048 25.8278 103.394 24.8985 103.648 23.9185C103.901 22.9217 104.078 21.967 104.18 21.0547C104.281 20.1254 104.332 19.3482 104.332 18.723C104.332 16.0196 103.833 13.9837 102.837 12.6151C101.84 11.2296 100.488 10.5369 98.7815 10.5369C97.8522 10.5369 97.0581 10.8072 96.3991 11.3479C95.7571 11.8886 95.2164 12.5982 94.7771 13.4768C94.3547 14.3385 94.0168 15.2678 93.7633 16.2646C93.5099 17.2446 93.3325 18.1992 93.2311 19.1285C93.1297 20.0409 93.079 20.8097 93.079 21.4348C93.079 24.1382 93.5775 26.1826 94.5743 27.5681C95.5881 28.9367 96.9398 29.6209 98.6294 29.6209Z" fill="white"/>
<path d="M111.819 30.9997C111.338 30.9997 110.935 30.7826 110.609 30.3483C110.283 29.9139 110.12 29.1074 110.12 27.9285C110.12 27.3701 110.175 26.6566 110.283 25.788C110.392 24.9039 110.531 23.9344 110.702 22.8797C110.873 21.8249 111.035 20.7546 111.191 19.6689C111.361 18.5676 111.501 17.5128 111.609 16.5046C111.718 15.4964 111.772 14.6045 111.772 13.8289C111.772 13.2705 111.749 12.7276 111.702 12.2003C111.656 11.6574 111.516 11.1533 111.284 10.6879C111.361 10.5483 111.547 10.4242 111.842 10.3157C112.137 10.2071 112.455 10.1528 112.796 10.1528C113.463 10.1528 114.006 10.3079 114.425 10.6181C114.859 10.9128 115.301 11.5023 115.751 12.3864C116.03 12.9293 116.317 13.6273 116.612 14.4804C116.906 15.3335 117.217 16.2797 117.542 17.3189C117.868 18.3427 118.202 19.4052 118.543 20.5065C118.884 21.6077 119.241 22.6858 119.613 23.7405C120.001 24.7953 120.404 25.7647 120.823 26.6489C120.901 25.8113 121.025 24.8341 121.195 23.7173C121.366 22.6005 121.544 21.4449 121.73 20.2505C121.917 19.0562 122.072 17.9006 122.196 16.7838C122.335 15.667 122.405 14.682 122.405 13.8289C122.405 13.2705 122.382 12.7276 122.335 12.2003C122.289 11.6574 122.149 11.1533 121.917 10.6879C122.056 10.5328 122.273 10.4087 122.568 10.3157C122.878 10.2071 123.126 10.1528 123.313 10.1528C123.747 10.1528 124.073 10.3389 124.29 10.7112C124.507 11.0679 124.615 11.7039 124.615 12.6191C124.615 13.193 124.553 13.9142 124.429 14.7829C124.305 15.6515 124.158 16.6132 123.987 17.6679C123.817 18.7072 123.638 19.7774 123.452 20.8787C123.282 21.98 123.134 23.058 123.01 24.1128C122.886 25.152 122.824 26.106 122.824 26.9746C122.824 27.5795 122.886 28.1612 123.01 28.7196C123.134 29.2625 123.39 29.7433 123.778 30.1621C123.654 30.4879 123.452 30.7128 123.173 30.8369C122.894 30.9454 122.599 30.9997 122.289 30.9997C121.839 30.9997 121.428 30.9222 121.056 30.7671C120.683 30.6119 120.319 30.3327 119.962 29.9295C119.605 29.5107 119.233 28.9212 118.845 28.1612C118.582 27.6338 118.295 26.9591 117.984 26.137C117.69 25.2994 117.38 24.3765 117.054 23.3683C116.728 22.36 116.387 21.3208 116.03 20.2505C115.689 19.1803 115.332 18.141 114.96 17.1328C114.603 16.1246 114.239 15.2094 113.866 14.3873C113.758 15.2404 113.61 16.2021 113.424 17.2724C113.254 18.3427 113.067 19.4517 112.866 20.5995C112.68 21.7473 112.517 22.8719 112.377 23.9732C112.253 25.0745 112.191 26.0749 112.191 26.9746C112.191 27.5795 112.245 28.1612 112.354 28.7196C112.463 29.2625 112.711 29.7433 113.098 30.1621C112.974 30.5034 112.78 30.7283 112.517 30.8369C112.253 30.9454 112.02 30.9997 111.819 30.9997Z" fill="white"/>
<path d="M6.43554 48.022V41.6767H4.13887V40.5444H9.97136V41.6767H7.67468V48.022H6.43554ZM12.9067 48.1502C12.3868 48.1502 11.9239 48.0327 11.518 47.7976C11.1192 47.5555 10.8023 47.2244 10.5673 46.8042C10.3394 46.384 10.2255 45.8998 10.2255 45.3514C10.2255 44.8031 10.343 44.3188 10.578 43.8986C10.813 43.4785 11.1335 43.1509 11.5394 42.9159C11.9524 42.6737 12.4224 42.5527 12.9494 42.5527C13.4266 42.5527 13.8574 42.6773 14.242 42.9266C14.6265 43.1687 14.9292 43.5212 15.15 43.9841C15.3779 44.447 15.4918 44.9989 15.4918 45.6398H11.2937L11.4539 45.4903C11.4539 45.8179 11.5251 46.1027 11.6676 46.3449C11.81 46.5799 11.9987 46.7615 12.2337 46.8897C12.4687 47.0178 12.7287 47.0819 13.0135 47.0819C13.3411 47.0819 13.6117 47.0107 13.8254 46.8683C14.039 46.7187 14.2064 46.5265 14.3274 46.2915L15.385 46.7401C15.2354 47.025 15.0432 47.2742 14.8081 47.4879C14.5803 47.7015 14.3061 47.8653 13.9856 47.9792C13.6723 48.0932 13.3126 48.1502 12.9067 48.1502ZM11.5287 44.8707L11.3578 44.7212H14.3702L14.2099 44.8707C14.2099 44.5787 14.1458 44.3402 14.0177 44.155C13.8895 43.9627 13.7257 43.8203 13.5263 43.7277C13.334 43.628 13.131 43.5782 12.9174 43.5782C12.7037 43.5782 12.4901 43.628 12.2765 43.7277C12.0628 43.8203 11.8848 43.9627 11.7423 44.155C11.5999 44.3402 11.5287 44.5787 11.5287 44.8707ZM19.3351 48.1502C18.7867 48.1502 18.3024 48.0327 17.8823 47.7976C17.4621 47.5555 17.131 47.2244 16.8888 46.8042C16.6538 46.384 16.5363 45.8998 16.5363 45.3514C16.5363 44.8031 16.6538 44.3188 16.8888 43.8986C17.131 43.4785 17.4586 43.1509 17.8716 42.9159C18.2918 42.6737 18.7725 42.5527 19.3137 42.5527C19.8407 42.5527 20.3178 42.6809 20.7451 42.9372C21.1724 43.1865 21.4893 43.5461 21.6958 44.0161L20.5849 44.4434C20.4709 44.2084 20.2965 44.0197 20.0615 43.8773C19.8264 43.7348 19.5594 43.6636 19.2603 43.6636C18.9683 43.6636 18.7084 43.7384 18.4805 43.888C18.2526 44.0304 18.0746 44.2298 17.9464 44.4862C17.8182 44.7354 17.7541 45.0238 17.7541 45.3514C17.7541 45.679 17.8182 45.971 17.9464 46.2274C18.0817 46.4766 18.2633 46.676 18.4912 46.8256C18.7262 46.968 18.9897 47.0392 19.2817 47.0392C19.5808 47.0392 19.8478 46.9644 20.0828 46.8149C20.3178 46.6582 20.4923 46.4481 20.6062 46.1846L21.7172 46.6119C21.5107 47.0962 21.1938 47.4736 20.7665 47.7442C20.3463 48.0149 19.8692 48.1502 19.3351 48.1502ZM23.0839 48.022V40.5444H24.2803V48.022H23.0839ZM26.7052 48.022V45.2873H27.9016V48.022H26.7052ZM26.7052 45.2873C26.7052 44.86 26.6554 44.5325 26.5557 44.3046C26.456 44.0696 26.3171 43.9058 26.139 43.8132C25.9681 43.7206 25.7687 43.6743 25.5408 43.6743C25.1349 43.6672 24.8216 43.7989 24.6008 44.0696C24.3872 44.3402 24.2803 44.7283 24.2803 45.2339H23.821C23.821 44.6713 23.9029 44.1906 24.0667 43.7918C24.2376 43.3859 24.4762 43.0797 24.7824 42.8731C25.0886 42.6595 25.4518 42.5527 25.872 42.5527C26.2922 42.5527 26.6554 42.6381 26.9616 42.8091C27.2678 42.98 27.4992 43.247 27.6559 43.6102C27.8197 43.9663 27.9016 44.4328 27.9016 45.0096V45.2873H26.7052ZM29.5406 48.022V42.6809H30.6622L30.737 43.6636V48.022H29.5406ZM33.1618 48.022V45.2873H34.3583V48.022H33.1618ZM33.1618 45.2873C33.1618 44.86 33.112 44.5325 33.0123 44.3046C32.9197 44.0696 32.7844 43.9058 32.6064 43.8132C32.4355 43.7206 32.2325 43.6743 31.9975 43.6743C31.5987 43.6672 31.2889 43.7989 31.0681 44.0696C30.8474 44.3402 30.737 44.7283 30.737 45.2339H30.2883C30.2883 44.6713 30.3702 44.1906 30.534 43.7918C30.6978 43.3859 30.9328 43.0797 31.2391 42.8731C31.5453 42.6595 31.9085 42.5527 32.3286 42.5527C32.7559 42.5527 33.1191 42.6381 33.4182 42.8091C33.7244 42.98 33.9559 43.247 34.1126 43.6102C34.2764 43.9663 34.3583 44.4328 34.3583 45.0096V45.2873H33.1618ZM38.4544 48.1502C37.9203 48.1502 37.4431 48.0327 37.023 47.7976C36.6099 47.5555 36.2859 47.2244 36.0509 46.8042C35.8159 46.384 35.6984 45.8998 35.6984 45.3514C35.6984 44.8031 35.8123 44.3188 36.0402 43.8986C36.2752 43.4785 36.5992 43.1509 37.0123 42.9159C37.4253 42.6737 37.8989 42.5527 38.433 42.5527C38.9671 42.5527 39.4407 42.6737 39.8538 42.9159C40.2668 43.1509 40.5873 43.4785 40.8152 43.8986C41.0502 44.3188 41.1677 44.8031 41.1677 45.3514C41.1677 45.8998 41.0537 46.384 40.8258 46.8042C40.5979 47.2244 40.2775 47.5555 39.8644 47.7976C39.4514 48.0327 38.9814 48.1502 38.4544 48.1502ZM38.4544 47.0499C38.7464 47.0499 39.0063 46.9787 39.2342 46.8362C39.4621 46.6867 39.6401 46.4873 39.7683 46.238C39.8965 45.9817 39.9606 45.6861 39.9606 45.3514C39.9606 45.0167 39.8929 44.7247 39.7576 44.4755C39.6294 44.2191 39.4514 44.0197 39.2235 43.8773C38.9956 43.7277 38.7321 43.6529 38.433 43.6529C38.1339 43.6529 37.8704 43.7242 37.6425 43.8666C37.4146 44.009 37.2366 44.2084 37.1084 44.4648C36.9802 44.7212 36.9161 45.0167 36.9161 45.3514C36.9161 45.6861 36.9802 45.9817 37.1084 46.238C37.2437 46.4873 37.4253 46.6867 37.6532 46.8362C37.8882 46.9787 38.1553 47.0499 38.4544 47.0499ZM42.6317 48.022V40.5444H43.8281V48.022H42.6317ZM48.0404 48.1502C47.5063 48.1502 47.0292 48.0327 46.609 47.7976C46.196 47.5555 45.8719 47.2244 45.6369 46.8042C45.4019 46.384 45.2844 45.8998 45.2844 45.3514C45.2844 44.8031 45.3983 44.3188 45.6262 43.8986C45.8612 43.4785 46.1853 43.1509 46.5983 42.9159C47.0114 42.6737 47.4849 42.5527 48.0191 42.5527C48.5532 42.5527 49.0267 42.6737 49.4398 42.9159C49.8528 43.1509 50.1733 43.4785 50.4012 43.8986C50.6362 44.3188 50.7537 44.8031 50.7537 45.3514C50.7537 45.8998 50.6398 46.384 50.4119 46.8042C50.184 47.2244 49.8635 47.5555 49.4505 47.7976C49.0374 48.0327 48.5674 48.1502 48.0404 48.1502ZM48.0404 47.0499C48.3324 47.0499 48.5923 46.9787 48.8202 46.8362C49.0481 46.6867 49.2261 46.4873 49.3543 46.238C49.4825 45.9817 49.5466 45.6861 49.5466 45.3514C49.5466 45.0167 49.479 44.7247 49.3436 44.4755C49.2155 44.2191 49.0374 44.0197 48.8095 43.8773C48.5816 43.7277 48.3182 43.6529 48.0191 43.6529C47.72 43.6529 47.4565 43.7242 47.2286 43.8666C47.0007 44.009 46.8226 44.2084 46.6945 44.4648C46.5663 44.7212 46.5022 45.0167 46.5022 45.3514C46.5022 45.6861 46.5663 45.9817 46.6945 46.238C46.8298 46.4873 47.0114 46.6867 47.2393 46.8362C47.4743 46.9787 47.7413 47.0499 48.0404 47.0499ZM54.5144 50.2973C54.137 50.2973 53.7952 50.2652 53.4889 50.2011C53.1898 50.1371 52.937 50.0623 52.7305 49.9768C52.524 49.8914 52.3637 49.8095 52.2498 49.7311L52.7091 48.7697C52.8088 48.8196 52.9406 48.8801 53.1044 48.9513C53.2753 49.0297 53.4747 49.0973 53.7026 49.1543C53.9305 49.2113 54.1868 49.2397 54.4717 49.2397C54.7779 49.2397 55.0521 49.1757 55.2942 49.0475C55.5364 48.9264 55.7251 48.7377 55.8604 48.4813C55.9957 48.2249 56.0633 47.8973 56.0633 47.4985V42.6809H57.2597V47.4665C57.2597 48.0718 57.1458 48.5846 56.9179 49.0047C56.69 49.432 56.3696 49.7525 55.9565 49.9661C55.5435 50.1869 55.0628 50.2973 54.5144 50.2973ZM54.3328 47.9152C53.8486 47.9152 53.4248 47.8048 53.0616 47.584C52.7056 47.3632 52.4243 47.057 52.2177 46.6653C52.0183 46.2665 51.9186 45.8072 51.9186 45.2873C51.9186 44.7319 52.0183 44.2512 52.2177 43.8452C52.4243 43.4393 52.7056 43.1224 53.0616 42.8945C53.4248 42.6666 53.8486 42.5527 54.3328 42.5527C54.7672 42.5527 55.1447 42.6666 55.4651 42.8945C55.7927 43.1224 56.0455 43.4429 56.2236 43.8559C56.4016 44.2618 56.4906 44.7425 56.4906 45.298C56.4906 45.825 56.4016 46.2843 56.2236 46.676C56.0455 47.0677 55.7927 47.3739 55.4651 47.5947C55.1447 47.8083 54.7672 47.9152 54.3328 47.9152ZM54.664 46.9003C54.9346 46.9003 55.1696 46.8291 55.369 46.6867C55.5755 46.5443 55.7358 46.352 55.8497 46.1099C55.9636 45.8606 56.0206 45.5757 56.0206 45.2553C56.0206 44.9277 55.9636 44.6428 55.8497 44.4007C55.7358 44.1515 55.5755 43.9592 55.369 43.8239C55.1625 43.6814 54.9239 43.6102 54.6533 43.6102C54.3684 43.6102 54.1156 43.6814 53.8949 43.8239C53.6812 43.9592 53.5103 44.1515 53.3821 44.4007C53.261 44.6428 53.2005 44.9277 53.2005 45.2553C53.2005 45.5757 53.261 45.8606 53.3821 46.1099C53.5103 46.352 53.6848 46.5443 53.9055 46.6867C54.1263 46.8291 54.3791 46.9003 54.664 46.9003ZM59.8524 50.2866C59.6814 50.2866 59.4892 50.2546 59.2755 50.1905C59.069 50.1264 58.8696 50.0445 58.6773 49.9448L59.126 48.9727C59.2613 49.0368 59.3859 49.0866 59.4998 49.1222C59.6138 49.165 59.7064 49.1863 59.7776 49.1863C59.9485 49.1863 60.0909 49.14 60.2049 49.0475C60.3259 48.962 60.4221 48.8338 60.4933 48.6629L61.1235 47.1888L62.9288 42.6809H64.2321L61.7538 48.5881C61.6042 48.93 61.4511 49.2291 61.2945 49.4854C61.1449 49.7418 60.9562 49.9376 60.7283 50.073C60.5004 50.2154 60.2084 50.2866 59.8524 50.2866ZM60.8031 48.022L58.4103 42.6809H59.7135L61.5722 47.1781L61.9567 48.022H60.8031ZM68.9095 48.022V42.1147C68.9095 41.5521 69.0484 41.1213 69.3261 40.8222C69.611 40.5159 70.0383 40.3628 70.608 40.3628C70.7932 40.3628 70.989 40.3949 71.1955 40.459C71.4092 40.5159 71.6121 40.5943 71.8044 40.694L71.3664 41.5806C71.2311 41.5165 71.1101 41.4702 71.0032 41.4417C70.9035 41.4132 70.8145 41.399 70.7362 41.399C70.5225 41.399 70.3623 41.4702 70.2555 41.6126C70.1558 41.748 70.1059 41.9723 70.1059 42.2856V48.022H68.9095ZM67.9909 43.6636V42.6809H71.5053V43.6636H67.9909ZM75.2654 48.1502C74.7313 48.1502 74.2542 48.0327 73.834 47.7976C73.421 47.5555 73.097 47.2244 72.8619 46.8042C72.6269 46.384 72.5094 45.8998 72.5094 45.3514C72.5094 44.8031 72.6234 44.3188 72.8513 43.8986C73.0863 43.4785 73.4103 43.1509 73.8233 42.9159C74.2364 42.6737 74.71 42.5527 75.2441 42.5527C75.7782 42.5527 76.2518 42.6737 76.6648 42.9159C77.0779 43.1509 77.3983 43.4785 77.6262 43.8986C77.8612 44.3188 77.9787 44.8031 77.9787 45.3514C77.9787 45.8998 77.8648 46.384 77.6369 46.8042C77.409 47.2244 77.0885 47.5555 76.6755 47.7976C76.2625 48.0327 75.7924 48.1502 75.2654 48.1502ZM75.2654 47.0499C75.5574 47.0499 75.8174 46.9787 76.0452 46.8362C76.2731 46.6867 76.4512 46.4873 76.5794 46.238C76.7075 45.9817 76.7716 45.6861 76.7716 45.3514C76.7716 45.0167 76.704 44.7247 76.5687 44.4755C76.4405 44.2191 76.2625 44.0197 76.0346 43.8773C75.8067 43.7277 75.5432 43.6529 75.2441 43.6529C74.945 43.6529 74.6815 43.7242 74.4536 43.8666C74.2257 44.009 74.0477 44.2084 73.9195 44.4648C73.7913 44.7212 73.7272 45.0167 73.7272 45.3514C73.7272 45.6861 73.7913 45.9817 73.9195 46.238C74.0548 46.4873 74.2364 46.6867 74.4643 46.8362C74.6993 46.9787 74.9663 47.0499 75.2654 47.0499ZM80.2333 45.1805C80.2333 44.6037 80.3436 44.1301 80.5644 43.7598C80.7852 43.3895 81.07 43.1153 81.419 42.9372C81.7751 42.7521 82.1454 42.6595 82.5299 42.6595V43.8025C82.2023 43.8025 81.8926 43.8488 81.6006 43.9414C81.3157 44.0268 81.0843 44.1693 80.9062 44.3687C80.7282 44.5681 80.6392 44.8316 80.6392 45.1591L80.2333 45.1805ZM79.4428 48.022V42.6809H80.6392V48.022H79.4428ZM91.9783 48.022V40.5444H93.2174V48.022H91.9783ZM86.979 48.022V40.5444H88.2181V48.022H86.979ZM87.9511 44.7532V43.6209H92.4803V44.7532H87.9511ZM97.5757 48.1502C97.0559 48.1502 96.593 48.0327 96.1871 47.7976C95.7883 47.5555 95.4713 47.2244 95.2363 46.8042C95.0084 46.384 94.8945 45.8998 94.8945 45.3514C94.8945 44.8031 95.012 44.3188 95.247 43.8986C95.482 43.4785 95.8025 43.1509 96.2084 42.9159C96.6215 42.6737 97.0915 42.5527 97.6185 42.5527C98.0956 42.5527 98.5265 42.6773 98.911 42.9266C99.2956 43.1687 99.5982 43.5212 99.819 43.9841C100.047 44.447 100.161 44.9989 100.161 45.6398H95.9627L96.123 45.4903C96.123 45.8179 96.1942 46.1027 96.3366 46.3449C96.479 46.5799 96.6678 46.7615 96.9028 46.8897C97.1378 47.0178 97.3977 47.0819 97.6826 47.0819C98.0102 47.0819 98.2808 47.0107 98.4944 46.8683C98.7081 46.7187 98.8754 46.5265 98.9965 46.2915L100.054 46.7401C99.9045 47.025 99.7122 47.2742 99.4772 47.4879C99.2493 47.7015 98.9751 47.8653 98.6546 47.9792C98.3413 48.0932 97.9817 48.1502 97.5757 48.1502ZM96.1977 44.8707L96.0268 44.7212H99.0392L98.879 44.8707C98.879 44.5787 98.8149 44.3402 98.6867 44.155C98.5585 43.9627 98.3947 43.8203 98.1953 43.7277C98.003 43.628 97.8001 43.5782 97.5864 43.5782C97.3728 43.5782 97.1591 43.628 96.9455 43.7277C96.7318 43.8203 96.5538 43.9627 96.4114 44.155C96.269 44.3402 96.1977 44.5787 96.1977 44.8707ZM104.763 48.022L104.709 47.0178V45.2766C104.709 44.9134 104.67 44.6108 104.592 44.3687C104.52 44.1194 104.399 43.9307 104.228 43.8025C104.065 43.6672 103.844 43.5995 103.566 43.5995C103.31 43.5995 103.085 43.6529 102.893 43.7598C102.701 43.8666 102.537 44.0339 102.402 44.2618L101.355 43.8773C101.469 43.6423 101.618 43.4251 101.804 43.2257C101.996 43.0191 102.234 42.8553 102.519 42.7343C102.811 42.6132 103.16 42.5527 103.566 42.5527C104.086 42.5527 104.52 42.6559 104.869 42.8625C105.218 43.0619 105.475 43.3503 105.638 43.7277C105.809 44.1052 105.895 44.5609 105.895 45.095L105.863 48.022H104.763ZM103.224 48.1502C102.583 48.1502 102.085 48.0077 101.729 47.7229C101.38 47.438 101.205 47.0356 101.205 46.5158C101.205 45.9603 101.391 45.5366 101.761 45.2446C102.138 44.9526 102.662 44.8066 103.331 44.8066H104.763V45.7253H103.716C103.239 45.7253 102.904 45.793 102.712 45.9283C102.519 46.0564 102.423 46.2416 102.423 46.4837C102.423 46.6903 102.505 46.8541 102.669 46.9751C102.84 47.0891 103.075 47.146 103.374 47.146C103.644 47.146 103.879 47.0855 104.079 46.9644C104.278 46.8434 104.431 46.6831 104.538 46.4837C104.652 46.2843 104.709 46.06 104.709 45.8108H105.062C105.062 46.5371 104.916 47.1104 104.624 47.5306C104.332 47.9436 103.865 48.1502 103.224 48.1502ZM107.534 48.022V40.5444H108.73V48.022H107.534ZM112.611 48.1502C112.049 48.1502 111.618 48.0113 111.319 47.7336C111.027 47.4487 110.881 47.0428 110.881 46.5158V41.0144H112.066V46.2915C112.066 46.5407 112.123 46.7294 112.237 46.8576C112.358 46.9858 112.533 47.0499 112.761 47.0499C112.832 47.0499 112.91 47.0356 112.996 47.0072C113.081 46.9787 113.177 46.9253 113.284 46.8469L113.722 47.7549C113.537 47.8831 113.352 47.9792 113.167 48.0433C112.982 48.1146 112.796 48.1502 112.611 48.1502ZM109.994 43.7064V42.6809H113.509V43.7064H109.994ZM115.117 48.022V40.5444H116.313V48.022H115.117ZM118.738 48.022V45.2873H119.935V48.022H118.738ZM118.738 45.2873C118.738 44.86 118.688 44.5325 118.589 44.3046C118.489 44.0696 118.35 43.9058 118.172 43.8132C118.001 43.7206 117.802 43.6743 117.574 43.6743C117.168 43.6672 116.855 43.7989 116.634 44.0696C116.42 44.3402 116.313 44.7283 116.313 45.2339H115.854C115.854 44.6713 115.936 44.1906 116.1 43.7918C116.271 43.3859 116.509 43.0797 116.815 42.8731C117.122 42.6595 117.485 42.5527 117.905 42.5527C118.325 42.5527 118.688 42.6381 118.995 42.8091C119.301 42.98 119.532 43.247 119.689 43.6102C119.853 43.9663 119.935 44.4328 119.935 45.0096V45.2873H118.738Z" fill="white"/>
</svg>
